<svg width="40" height="17" viewBox="0 0 40 17" fill="none" xmlns="http://www.w3.org/2000/svg">
<path d="M7.03675 15.9859H0C0.0800723 15.7305 0.137724 15.5303 0.211391 15.3328C2.00501 10.4718 3.80824 5.61075 5.59225 0.744434C5.74278 0.336274 5.93816 0.154578 6.50187 0.159844C8.40759 0.178277 10.3133 0.159844 12.2158 0.117712C12.7187 0.107178 12.9109 0.254642 13.039 0.631202C13.5835 2.23224 14.1632 3.82538 14.7301 5.41852C14.7942 5.59758 14.871 5.77401 15.0088 6.12424C15.1465 5.77928 15.2265 5.59231 15.2938 5.40008C15.8575 3.82538 16.4308 2.25067 16.9657 0.668068C17.1034 0.280975 17.286 0.107178 17.8273 0.117712C19.8259 0.154578 21.8245 0.154578 23.8263 0.144044C24.2523 0.144044 24.4349 0.252009 24.5566 0.59697C26.3182 5.60811 28.1022 10.6166 29.8766 15.6225C29.9086 15.712 29.9342 15.8042 29.9791 15.949C29.7389 15.9648 29.5435 15.9885 29.3449 15.9912C27.4648 16.0122 25.5815 16.0122 23.7014 16.0544C23.1953 16.0649 22.9647 15.9569 22.8174 15.5382C21.4145 11.5883 19.9828 7.64628 18.5576 3.69898C18.5031 3.55152 18.4358 3.40932 18.3302 3.15652C18.2213 3.40669 18.1508 3.55942 18.0899 3.71215C17.4782 5.31582 16.8504 6.91686 16.2739 8.52843C16.1618 8.83915 16.1554 9.21835 16.2611 9.52908C16.8856 11.3724 17.5583 13.2025 18.2116 15.0379C18.3109 15.3144 18.3942 15.5909 18.5031 15.9174C18.3045 15.9385 18.154 15.9675 18.0035 15.9675C16.0497 15.9727 14.0991 15.9596 12.1454 15.9885C11.6553 15.9964 11.4632 15.8753 11.3254 15.4856C9.9674 11.6041 8.58375 7.72791 7.20651 3.85171C7.13604 3.65158 7.04956 3.45145 6.90543 3.09332C6.48265 4.2309 6.11432 5.21839 5.75239 6.20324C5.46734 6.98005 5.22071 7.76741 4.89722 8.53369C4.68263 9.03928 4.71786 9.49748 4.90363 9.9978C5.56983 11.7911 6.204 13.5922 6.85099 15.3881C6.91504 15.5698 6.96949 15.7542 7.03996 15.9754L7.03675 15.9859Z" fill="black"/>
<path d="M36.0774 7.5828C36.955 7.04561 37.1344 6.29513 37.0671 5.46564C36.8045 2.12663 32.1923 -0.56985 28.1631 0.3202C28.2143 0.488731 28.2432 0.617762 28.288 0.74416C29.4987 4.15953 30.6998 7.5749 31.9233 10.985L32.0194 11.2457L33.7105 15.8566C33.7105 15.8566 33.7137 15.8566 33.7169 15.8592C33.7713 15.8803 34.223 16.0436 35.0909 16.0541C35.4593 16.062 35.9077 16.0383 36.433 15.9672H36.4105C36.5515 15.954 36.6924 15.9093 36.8301 15.8777C38.4508 15.5195 39.3988 14.6321 39.623 13.2707C39.9818 11.0772 38.4924 8.67035 36.0774 7.5828Z" fill="black"/>
</svg>
